<svg width="22" height="30" viewBox="0 0 22 30" fill="none" xmlns="http://www.w3.org/2000/svg">
<mask id="path-1-inside-1_5_19" fill="white">
<path d="M19.5556 0H2.44444C1.79614 0 1.17438 0.225765 0.715962 0.627628C0.257539 1.02949 0 1.57454 0 2.14286V27.8571C0 28.4255 0.257539 28.9705 0.715962 29.3724C1.17438 29.7742 1.79614 30 2.44444 30H19.5556C20.2039 30 20.8256 29.7742 21.284 29.3724C21.7425 28.9705 22 28.4255 22 27.8571V2.14286C22 1.57454 21.7425 1.02949 21.284 0.627628C20.8256 0.225765 20.2039 0 19.5556 0ZM2.44444 2.14286H19.5556V21.4286H2.44444V2.14286ZM2.44444 27.8571V23.5714H19.5556V27.8571H2.44444Z"/>
</mask>
<path d="M19.5556 0H2.44444C1.79614 0 1.17438 0.225765 0.715962 0.627628C0.257539 1.02949 0 1.57454 0 2.14286V27.8571C0 28.4255 0.257539 28.9705 0.715962 29.3724C1.17438 29.7742 1.79614 30 2.44444 30H19.5556C20.2039 30 20.8256 29.7742 21.284 29.3724C21.7425 28.9705 22 28.4255 22 27.8571V2.14286C22 1.57454 21.7425 1.02949 21.284 0.627628C20.8256 0.225765 20.2039 0 19.5556 0ZM2.44444 2.14286H19.5556V21.4286H2.44444V2.14286ZM2.44444 27.8571V23.5714H19.5556V27.8571H2.44444Z" fill="black"/>
<path d="M2.44444 0V-12V0ZM2.44444 2.14286V-9.85714H-9.55556V2.14286H2.44444ZM19.5556 2.14286H31.5556V-9.85714H19.5556V2.14286ZM19.5556 21.4286V33.4286H31.5556V21.4286H19.5556ZM2.44444 21.4286H-9.55556V33.4286H2.44444V21.4286ZM2.44444 27.8571H-9.55556V39.8571H2.44444V27.8571ZM2.44444 23.5714V11.5714H-9.55556V23.5714H2.44444ZM19.5556 23.5714H31.5556V11.5714H19.5556V23.5714ZM19.5556 27.8571V39.8571H31.5556V27.8571H19.5556ZM19.5556 -12H2.44444V12H19.5556V-12ZM2.44444 -12C-0.913529 -12 -4.40094 -10.8448 -7.19439 -8.39603L8.62631 9.65129C6.74971 11.2964 4.5058 12 2.44444 12V-12ZM-7.19439 -8.39603C-10.0384 -5.90289 -12 -2.15622 -12 2.14286H12C12 5.30529 10.5535 7.96187 8.62631 9.65129L-7.19439 -8.39603ZM-12 2.14286V27.8571H12V2.14286H-12ZM-12 27.8571C-12 32.1562 -10.0384 35.9029 -7.19439 38.396L8.62631 20.3487C10.5535 22.0381 12 24.6947 12 27.8571H-12ZM-7.19439 38.396C-4.40095 40.8448 -0.913536 42 2.44444 42V18C4.50581 18 6.74972 18.7036 8.62631 20.3487L-7.19439 38.396ZM2.44444 42H19.5556V18H2.44444V42ZM19.5556 42C22.9135 42 26.4009 40.8448 29.1944 38.396L13.3737 20.3487C15.2503 18.7036 17.4942 18 19.5556 18V42ZM29.1944 38.396C32.0384 35.9029 34 32.1562 34 27.8571H10C10 24.6947 11.4465 22.0381 13.3737 20.3487L29.1944 38.396ZM34 27.8571V2.14286H10V27.8571H34ZM34 2.14286C34 -2.15622 32.0384 -5.90289 29.1944 -8.39603L13.3737 9.65129C11.4465 7.96187 10 5.30529 10 2.14286H34ZM29.1944 -8.39603C26.4009 -10.8448 22.9135 -12 19.5556 -12V12C17.4942 12 15.2503 11.2964 13.3737 9.65129L29.1944 -8.39603ZM2.44444 14.1429H19.5556V-9.85714H2.44444V14.1429ZM7.55556 2.14286V21.4286H31.5556V2.14286H7.55556ZM19.5556 9.42857H2.44444V33.4286H19.5556V9.42857ZM14.4444 21.4286V2.14286H-9.55556V21.4286H14.4444ZM14.4444 27.8571V23.5714H-9.55556V27.8571H14.4444ZM2.44444 35.5714H19.5556V11.5714H2.44444V35.5714ZM7.55556 23.5714V27.8571H31.5556V23.5714H7.55556ZM19.5556 15.8571H2.44444V39.8571H19.5556V15.8571Z" fill="black" mask="url(#path-1-inside-1_5_19)"/>
</svg>
