<svg width="26" height="26" viewBox="0 0 26 26" fill="none" xmlns="http://www.w3.org/2000/svg">
<path d="M24.3333 0.25H1.66667C1.29094 0.25 0.930609 0.399255 0.664932 0.664932C0.399255 0.930609 0.25 1.29094 0.25 1.66667V24.3333C0.25 24.7091 0.399255 25.0694 0.664932 25.3351C0.930609 25.6007 1.29094 25.75 1.66667 25.75H13.8712V15.89H10.5591V12.0296H13.8712V9.19625C13.8712 5.9025 15.8829 4.10758 18.8296 4.10758C19.8198 4.10475 20.8115 4.15575 21.7975 4.25917V7.6875H19.7646C18.1666 7.6875 17.8549 8.44967 17.8549 9.56458V12.0225H21.6757L21.1798 15.8829H17.8535V25.75H24.3333C24.7091 25.75 25.0694 25.6007 25.3351 25.3351C25.6007 25.0694 25.75 24.7091 25.75 24.3333V1.66667C25.75 1.29094 25.6007 0.930609 25.3351 0.664932C25.0694 0.399255 24.7091 0.25 24.3333 0.25V0.25Z" fill="black"/>
</svg>
